<svg xmlns="http://www.w3.org/2000/svg" version="1.1" height="784" width="1264" viewBox="0 0 1264 784" class="diagram" text-anchor="middle" font-family="monospace" font-size="13px">
<path d="M 26,96 L 26,112" fill="none" stroke="black"/><path d="M 22,96 L 22,112" fill="none" stroke="black"/>
<path d="M 290,112 L 290,128" fill="none" stroke="black"/><path d="M 286,112 L 286,128" fill="none" stroke="black"/>
<path d="M 346,80 L 346,128" fill="none" stroke="black"/><path d="M 342,80 L 342,128" fill="none" stroke="black"/>
<path d="M 410,80 L 410,128" fill="none" stroke="black"/><path d="M 406,80 L 406,128" fill="none" stroke="black"/>
<path d="M 434,96 L 434,112" fill="none" stroke="black"/><path d="M 430,96 L 430,112" fill="none" stroke="black"/>
<path d="M 482,96 L 482,112" fill="none" stroke="black"/><path d="M 478,96 L 478,112" fill="none" stroke="black"/>
<path d="M 506,80 L 506,112" fill="none" stroke="black"/><path d="M 502,80 L 502,112" fill="none" stroke="black"/>
<path d="M 554,80 L 554,112" fill="none" stroke="black"/><path d="M 550,80 L 550,112" fill="none" stroke="black"/>
<path d="M 618,112 L 618,128" fill="none" stroke="black"/><path d="M 614,112 L 614,128" fill="none" stroke="black"/>
<path d="M 762,96 L 762,128" fill="none" stroke="black"/><path d="M 758,96 L 758,128" fill="none" stroke="black"/>
<path d="M 810,96 L 810,112" fill="none" stroke="black"/><path d="M 806,96 L 806,112" fill="none" stroke="black"/>
<path d="M 858,96 L 858,112" fill="none" stroke="black"/><path d="M 854,96 L 854,112" fill="none" stroke="black"/>
<path d="M 882,80 L 882,112" fill="none" stroke="black"/><path d="M 878,80 L 878,112" fill="none" stroke="black"/>
<path d="M 938,80 L 938,112" fill="none" stroke="black"/><path d="M 934,80 L 934,112" fill="none" stroke="black"/>
<path d="M 1122,96 L 1122,112" fill="none" stroke="black"/><path d="M 1118,96 L 1118,112" fill="none" stroke="black"/>
<path d="M 1162,96 L 1162,112" fill="none" stroke="black"/><path d="M 1158,96 L 1158,112" fill="none" stroke="black"/>
<path d="M 1186,80 L 1186,128" fill="none" stroke="black"/><path d="M 1182,80 L 1182,128" fill="none" stroke="black"/>
<path d="M 472,30 L 488,30" fill="none" stroke="black"/><path d="M 472,34 L 488,34" fill="none" stroke="black"/>
<path d="M 568,30 L 584,30" fill="none" stroke="black"/><path d="M 568,34 L 584,34" fill="none" stroke="black"/>
<path d="M 624,30 L 640,30" fill="none" stroke="black"/><path d="M 624,34 L 640,34" fill="none" stroke="black"/>
<path d="M 104,46 L 1080,46" fill="none" stroke="black"/><path d="M 104,50 L 1080,50" fill="none" stroke="black"/>
<path d="M 32,78 L 56,78" fill="none" stroke="black"/><path d="M 32,82 L 56,82" fill="none" stroke="black"/>
<path d="M 168,78 L 192,78" fill="none" stroke="black"/><path d="M 168,82 L 192,82" fill="none" stroke="black"/>
<path d="M 232,78 L 256,78" fill="none" stroke="black"/><path d="M 232,82 L 256,82" fill="none" stroke="black"/>
<path d="M 440,78 L 456,78" fill="none" stroke="black"/><path d="M 440,82 L 456,82" fill="none" stroke="black"/>
<path d="M 584,78 L 608,78" fill="none" stroke="black"/><path d="M 584,82 L 608,82" fill="none" stroke="black"/>
<path d="M 648,78 L 672,78" fill="none" stroke="black"/><path d="M 648,82 L 672,82" fill="none" stroke="black"/>
<path d="M 816,78 L 832,78" fill="none" stroke="black"/><path d="M 816,82 L 832,82" fill="none" stroke="black"/>
<path d="M 968,78 L 992,78" fill="none" stroke="black"/><path d="M 968,82 L 992,82" fill="none" stroke="black"/>
<path d="M 568,110 L 592,110" fill="none" stroke="black"/><path d="M 568,114 L 592,114" fill="none" stroke="black"/>
<path d="M 24,142 L 56,142" fill="none" stroke="black"/><path d="M 24,146 L 56,146" fill="none" stroke="black"/>
<path d="M 152,142 L 192,142" fill="none" stroke="black"/><path d="M 152,146 L 192,146" fill="none" stroke="black"/>
<path d="M 216,142 L 256,142" fill="none" stroke="black"/><path d="M 216,146 L 256,146" fill="none" stroke="black"/>
<path d="M 320,142 L 336,142" fill="none" stroke="black"/><path d="M 320,146 L 336,146" fill="none" stroke="black"/>
<path d="M 432,142 L 464,142" fill="none" stroke="black"/><path d="M 432,146 L 464,146" fill="none" stroke="black"/>
<path d="M 504,142 L 536,142" fill="none" stroke="black"/><path d="M 504,146 L 536,146" fill="none" stroke="black"/>
<path d="M 568,142 L 608,142" fill="none" stroke="black"/><path d="M 568,146 L 608,146" fill="none" stroke="black"/>
<path d="M 632,142 L 672,142" fill="none" stroke="black"/><path d="M 632,146 L 672,146" fill="none" stroke="black"/>
<path d="M 808,142 L 840,142" fill="none" stroke="black"/><path d="M 808,146 L 840,146" fill="none" stroke="black"/>
<path d="M 952,142 L 992,142" fill="none" stroke="black"/><path d="M 952,146 L 992,146" fill="none" stroke="black"/>
<path d="M 1112,142 L 1144,142" fill="none" stroke="black"/><path d="M 1112,146 L 1144,146" fill="none" stroke="black"/>
<path d="M 104,750 L 1080,750" fill="none" stroke="black"/><path d="M 104,754 L 1080,754" fill="none" stroke="black"/>
<path d="M 352,384 L 360,368" fill="none" stroke="black"/>
<path d="M 344,432 L 352,416" fill="none" stroke="black"/>
<path d="M 344,448 L 352,432" fill="none" stroke="black"/>
<path d="M 384,368 L 392,352" fill="none" stroke="black"/>
<path d="M 392,368 L 400,352" fill="none" stroke="black"/>
<path d="M 360,464 L 368,448" fill="none" stroke="black"/>
<path d="M 408,368 L 416,352" fill="none" stroke="black"/>
<path d="M 408,384 L 424,352" fill="none" stroke="black"/>
<path d="M 368,480 L 384,448" fill="none" stroke="black"/>
<path d="M 416,384 L 424,368" fill="none" stroke="black"/>
<path d="M 424,384 L 432,368" fill="none" stroke="black"/>
<path d="M 416,432 L 432,400" fill="none" stroke="black"/>
<rect class="gray" x="1244" y="56" width="8" height="16" fill="rgb(0,0,0)"/>
<rect class="gray" x="1236" y="72" width="8" height="16" fill="rgb(0,0,0)"/>
<rect class="gray" x="1236" y="56" width="8" height="16" fill="rgb(0,0,0)"/>
<rect class="gray" x="1228" y="88" width="8" height="16" fill="rgb(0,0,0)"/>
<rect class="gray" x="1228" y="72" width="8" height="16" fill="rgb(0,0,0)"/>
<rect class="gray" x="1220" y="120" width="8" height="16" fill="rgb(0,0,0)"/>
<rect class="gray" x="1220" y="104" width="8" height="16" fill="rgb(0,0,0)"/>
<rect class="gray" x="1220" y="88" width="8" height="16" fill="rgb(0,0,0)"/>
<rect class="gray" x="1212" y="120" width="8" height="16" fill="rgb(0,0,0)"/>
<rect class="gray" x="1212" y="104" width="8" height="16" fill="rgb(0,0,0)"/>
<rect class="gray" x="1212" y="88" width="8" height="16" fill="rgb(0,0,0)"/>
<rect class="gray" x="1204" y="88" width="8" height="16" fill="rgb(0,0,0)"/>
<rect class="gray" x="1204" y="72" width="8" height="16" fill="rgb(0,0,0)"/>
<rect class="gray" x="1196" y="72" width="8" height="16" fill="rgb(0,0,0)"/>
<rect class="gray" x="1196" y="56" width="8" height="16" fill="rgb(0,0,0)"/>
<rect class="gray" x="1188" y="56" width="8" height="16" fill="rgb(0,0,0)"/>
<rect class="gray" x="1172" y="120" width="8" height="16" fill="rgb(0,0,0)"/>
<rect class="gray" x="1172" y="104" width="8" height="16" fill="rgb(0,0,0)"/>
<rect class="gray" x="1172" y="88" width="8" height="16" fill="rgb(0,0,0)"/>
<rect class="gray" x="1172" y="72" width="8" height="16" fill="rgb(0,0,0)"/>
<rect class="gray" x="1172" y="56" width="8" height="16" fill="rgb(0,0,0)"/>
<rect class="gray" x="1164" y="120" width="8" height="16" fill="rgb(0,0,0)"/>
<rect class="gray" x="1164" y="104" width="8" height="16" fill="rgb(0,0,0)"/>
<rect class="gray" x="1164" y="88" width="8" height="16" fill="rgb(0,0,0)"/>
<rect class="gray" x="1164" y="72" width="8" height="16" fill="rgb(0,0,0)"/>
<rect class="gray" x="1164" y="56" width="8" height="16" fill="rgb(0,0,0)"/>
<rect class="gray" x="1148" y="104" width="8" height="16" fill="rgb(0,0,0)"/>
<rect class="gray" x="1148" y="88" width="8" height="16" fill="rgb(0,0,0)"/>
<rect class="gray" x="1148" y="72" width="8" height="16" fill="rgb(0,0,0)"/>
<rect class="gray" x="1140" y="120" width="8" height="16" fill="rgb(0,0,0)"/>
<rect class="gray" x="1140" y="104" width="8" height="16" fill="rgb(0,0,0)"/>
<rect class="gray" x="1140" y="88" width="8" height="16" fill="rgb(0,0,0)"/>
<rect class="gray" x="1140" y="72" width="8" height="16" fill="rgb(0,0,0)"/>
<rect class="gray" x="1140" y="56" width="8" height="16" fill="rgb(0,0,0)"/>
<rect class="gray" x="1132" y="120" width="8" height="16" fill="rgb(0,0,0)"/>
<rect class="gray" x="1132" y="56" width="8" height="16" fill="rgb(0,0,0)"/>
<rect class="gray" x="1124" y="120" width="8" height="16" fill="rgb(0,0,0)"/>
<rect class="gray" x="1124" y="56" width="8" height="16" fill="rgb(0,0,0)"/>
<rect class="gray" x="1116" y="120" width="8" height="16" fill="rgb(0,0,0)"/>
<rect class="gray" x="1116" y="56" width="8" height="16" fill="rgb(0,0,0)"/>
<rect class="gray" x="1108" y="120" width="8" height="16" fill="rgb(0,0,0)"/>
<rect class="gray" x="1108" y="104" width="8" height="16" fill="rgb(0,0,0)"/>
<rect class="gray" x="1108" y="88" width="8" height="16" fill="rgb(0,0,0)"/>
<rect class="gray" x="1108" y="72" width="8" height="16" fill="rgb(0,0,0)"/>
<rect class="gray" x="1108" y="56" width="8" height="16" fill="rgb(0,0,0)"/>
<rect class="gray" x="1100" y="120" width="8" height="16" fill="rgb(0,0,0)"/>
<rect class="gray" x="1100" y="104" width="8" height="16" fill="rgb(0,0,0)"/>
<rect class="gray" x="1100" y="88" width="8" height="16" fill="rgb(0,0,0)"/>
<rect class="gray" x="1100" y="72" width="8" height="16" fill="rgb(0,0,0)"/>
<rect class="gray" x="1100" y="56" width="8" height="16" fill="rgb(0,0,0)"/>
<rect class="gray" x="1052" y="120" width="8" height="16" fill="rgb(0,0,0)"/>
<rect class="gray" x="1052" y="104" width="8" height="16" fill="rgb(0,0,0)"/>
<rect class="gray" x="1052" y="72" width="8" height="16" fill="rgb(0,0,0)"/>
<rect class="gray" x="1044" y="120" width="8" height="16" fill="rgb(0,0,0)"/>
<rect class="gray" x="1044" y="104" width="8" height="16" fill="rgb(0,0,0)"/>
<rect class="gray" x="1044" y="88" width="8" height="16" fill="rgb(0,0,0)"/>
<rect class="gray" x="1044" y="72" width="8" height="16" fill="rgb(0,0,0)"/>
<rect class="gray" x="1044" y="56" width="8" height="16" fill="rgb(0,0,0)"/>
<rect class="gray" x="1036" y="88" width="8" height="16" fill="rgb(0,0,0)"/>
<rect class="gray" x="1036" y="56" width="8" height="16" fill="rgb(0,0,0)"/>
<rect class="gray" x="1028" y="88" width="8" height="16" fill="rgb(0,0,0)"/>
<rect class="gray" x="1028" y="56" width="8" height="16" fill="rgb(0,0,0)"/>
<rect class="gray" x="1020" y="88" width="8" height="16" fill="rgb(0,0,0)"/>
<rect class="gray" x="1020" y="56" width="8" height="16" fill="rgb(0,0,0)"/>
<rect class="gray" x="1012" y="120" width="8" height="16" fill="rgb(0,0,0)"/>
<rect class="gray" x="1012" y="104" width="8" height="16" fill="rgb(0,0,0)"/>
<rect class="gray" x="1012" y="88" width="8" height="16" fill="rgb(0,0,0)"/>
<rect class="gray" x="1012" y="72" width="8" height="16" fill="rgb(0,0,0)"/>
<rect class="gray" x="1012" y="56" width="8" height="16" fill="rgb(0,0,0)"/>
<rect class="gray" x="1004" y="120" width="8" height="16" fill="rgb(0,0,0)"/>
<rect class="gray" x="1004" y="104" width="8" height="16" fill="rgb(0,0,0)"/>
<rect class="gray" x="1004" y="88" width="8" height="16" fill="rgb(0,0,0)"/>
<rect class="gray" x="1004" y="72" width="8" height="16" fill="rgb(0,0,0)"/>
<rect class="gray" x="1004" y="56" width="8" height="16" fill="rgb(0,0,0)"/>
<rect class="gray" x="988" y="120" width="8" height="16" fill="rgb(0,0,0)"/>
<rect class="gray" x="988" y="56" width="8" height="16" fill="rgb(0,0,0)"/>
<rect class="gray" x="980" y="120" width="8" height="16" fill="rgb(0,0,0)"/>
<rect class="gray" x="980" y="56" width="8" height="16" fill="rgb(0,0,0)"/>
<rect class="gray" x="972" y="120" width="8" height="16" fill="rgb(0,0,0)"/>
<rect class="gray" x="972" y="88" width="8" height="16" fill="rgb(0,0,0)"/>
<rect class="gray" x="972" y="56" width="8" height="16" fill="rgb(0,0,0)"/>
<rect class="gray" x="964" y="120" width="8" height="16" fill="rgb(0,0,0)"/>
<rect class="gray" x="964" y="88" width="8" height="16" fill="rgb(0,0,0)"/>
<rect class="gray" x="964" y="56" width="8" height="16" fill="rgb(0,0,0)"/>
<rect class="gray" x="956" y="120" width="8" height="16" fill="rgb(0,0,0)"/>
<rect class="gray" x="956" y="88" width="8" height="16" fill="rgb(0,0,0)"/>
<rect class="gray" x="956" y="56" width="8" height="16" fill="rgb(0,0,0)"/>
<rect class="gray" x="948" y="120" width="8" height="16" fill="rgb(0,0,0)"/>
<rect class="gray" x="948" y="104" width="8" height="16" fill="rgb(0,0,0)"/>
<rect class="gray" x="948" y="88" width="8" height="16" fill="rgb(0,0,0)"/>
<rect class="gray" x="948" y="72" width="8" height="16" fill="rgb(0,0,0)"/>
<rect class="gray" x="948" y="56" width="8" height="16" fill="rgb(0,0,0)"/>
<rect class="gray" x="940" y="120" width="8" height="16" fill="rgb(0,0,0)"/>
<rect class="gray" x="940" y="104" width="8" height="16" fill="rgb(0,0,0)"/>
<rect class="gray" x="940" y="88" width="8" height="16" fill="rgb(0,0,0)"/>
<rect class="gray" x="940" y="72" width="8" height="16" fill="rgb(0,0,0)"/>
<rect class="gray" x="940" y="56" width="8" height="16" fill="rgb(0,0,0)"/>
<rect class="gray" x="924" y="104" width="8" height="16" fill="rgb(0,0,0)"/>
<rect class="gray" x="924" y="88" width="8" height="16" fill="rgb(0,0,0)"/>
<rect class="gray" x="924" y="72" width="8" height="16" fill="rgb(0,0,0)"/>
<rect class="gray" x="924" y="56" width="8" height="16" fill="rgb(0,0,0)"/>
<rect class="gray" x="916" y="120" width="8" height="16" fill="rgb(0,0,0)"/>
<rect class="gray" x="916" y="104" width="8" height="16" fill="rgb(0,0,0)"/>
<rect class="gray" x="916" y="88" width="8" height="16" fill="rgb(0,0,0)"/>
<rect class="gray" x="916" y="72" width="8" height="16" fill="rgb(0,0,0)"/>
<rect class="gray" x="916" y="56" width="8" height="16" fill="rgb(0,0,0)"/>
<rect class="gray" x="908" y="120" width="8" height="16" fill="rgb(0,0,0)"/>
<rect class="gray" x="900" y="120" width="8" height="16" fill="rgb(0,0,0)"/>
<rect class="gray" x="900" y="104" width="8" height="16" fill="rgb(0,0,0)"/>
<rect class="gray" x="892" y="104" width="8" height="16" fill="rgb(0,0,0)"/>
<rect class="gray" x="892" y="88" width="8" height="16" fill="rgb(0,0,0)"/>
<rect class="gray" x="884" y="120" width="8" height="16" fill="rgb(0,0,0)"/>
<rect class="gray" x="884" y="104" width="8" height="16" fill="rgb(0,0,0)"/>
<rect class="gray" x="876" y="120" width="8" height="16" fill="rgb(0,0,0)"/>
<rect class="gray" x="868" y="120" width="8" height="16" fill="rgb(0,0,0)"/>
<rect class="gray" x="868" y="104" width="8" height="16" fill="rgb(0,0,0)"/>
<rect class="gray" x="868" y="88" width="8" height="16" fill="rgb(0,0,0)"/>
<rect class="gray" x="868" y="72" width="8" height="16" fill="rgb(0,0,0)"/>
<rect class="gray" x="868" y="56" width="8" height="16" fill="rgb(0,0,0)"/>
<rect class="gray" x="860" y="104" width="8" height="16" fill="rgb(0,0,0)"/>
<rect class="gray" x="860" y="88" width="8" height="16" fill="rgb(0,0,0)"/>
<rect class="gray" x="860" y="72" width="8" height="16" fill="rgb(0,0,0)"/>
<rect class="gray" x="860" y="56" width="8" height="16" fill="rgb(0,0,0)"/>
<rect class="gray" x="844" y="104" width="8" height="16" fill="rgb(0,0,0)"/>
<rect class="gray" x="844" y="88" width="8" height="16" fill="rgb(0,0,0)"/>
<rect class="gray" x="844" y="72" width="8" height="16" fill="rgb(0,0,0)"/>
<rect class="gray" x="836" y="120" width="8" height="16" fill="rgb(0,0,0)"/>
<rect class="gray" x="836" y="104" width="8" height="16" fill="rgb(0,0,0)"/>
<rect class="gray" x="836" y="88" width="8" height="16" fill="rgb(0,0,0)"/>
<rect class="gray" x="836" y="72" width="8" height="16" fill="rgb(0,0,0)"/>
<rect class="gray" x="836" y="56" width="8" height="16" fill="rgb(0,0,0)"/>
<rect class="gray" x="828" y="120" width="8" height="16" fill="rgb(0,0,0)"/>
<rect class="gray" x="828" y="56" width="8" height="16" fill="rgb(0,0,0)"/>
<rect class="gray" x="820" y="120" width="8" height="16" fill="rgb(0,0,0)"/>
<rect class="gray" x="820" y="56" width="8" height="16" fill="rgb(0,0,0)"/>
<rect class="gray" x="812" y="120" width="8" height="16" fill="rgb(0,0,0)"/>
<rect class="gray" x="812" y="56" width="8" height="16" fill="rgb(0,0,0)"/>
<rect class="gray" x="804" y="120" width="8" height="16" fill="rgb(0,0,0)"/>
<rect class="gray" x="804" y="56" width="8" height="16" fill="rgb(0,0,0)"/>
<rect class="gray" x="796" y="120" width="8" height="16" fill="rgb(0,0,0)"/>
<rect class="gray" x="796" y="104" width="8" height="16" fill="rgb(0,0,0)"/>
<rect class="gray" x="796" y="88" width="8" height="16" fill="rgb(0,0,0)"/>
<rect class="gray" x="796" y="72" width="8" height="16" fill="rgb(0,0,0)"/>
<rect class="gray" x="796" y="56" width="8" height="16" fill="rgb(0,0,0)"/>
<rect class="gray" x="788" y="104" width="8" height="16" fill="rgb(0,0,0)"/>
<rect class="gray" x="788" y="88" width="8" height="16" fill="rgb(0,0,0)"/>
<rect class="gray" x="788" y="72" width="8" height="16" fill="rgb(0,0,0)"/>
<rect class="gray" x="772" y="56" width="8" height="16" fill="rgb(0,0,0)"/>
<rect class="gray" x="764" y="56" width="8" height="16" fill="rgb(0,0,0)"/>
<rect class="gray" x="756" y="56" width="8" height="16" fill="rgb(0,0,0)"/>
<rect class="gray" x="748" y="120" width="8" height="16" fill="rgb(0,0,0)"/>
<rect class="gray" x="748" y="104" width="8" height="16" fill="rgb(0,0,0)"/>
<rect class="gray" x="748" y="88" width="8" height="16" fill="rgb(0,0,0)"/>
<rect class="gray" x="748" y="72" width="8" height="16" fill="rgb(0,0,0)"/>
<rect class="gray" x="748" y="56" width="8" height="16" fill="rgb(0,0,0)"/>
<rect class="gray" x="740" y="120" width="8" height="16" fill="rgb(0,0,0)"/>
<rect class="gray" x="740" y="104" width="8" height="16" fill="rgb(0,0,0)"/>
<rect class="gray" x="740" y="88" width="8" height="16" fill="rgb(0,0,0)"/>
<rect class="gray" x="740" y="72" width="8" height="16" fill="rgb(0,0,0)"/>
<rect class="gray" x="740" y="56" width="8" height="16" fill="rgb(0,0,0)"/>
<rect class="gray" x="732" y="56" width="8" height="16" fill="rgb(0,0,0)"/>
<rect class="gray" x="724" y="56" width="8" height="16" fill="rgb(0,0,0)"/>
<rect class="gray" x="716" y="56" width="8" height="16" fill="rgb(0,0,0)"/>
<rect class="gray" x="668" y="120" width="8" height="16" fill="rgb(0,0,0)"/>
<rect class="gray" x="668" y="56" width="8" height="16" fill="rgb(0,0,0)"/>
<rect class="gray" x="660" y="120" width="8" height="16" fill="rgb(0,0,0)"/>
<rect class="gray" x="660" y="56" width="8" height="16" fill="rgb(0,0,0)"/>
<rect class="gray" x="652" y="120" width="8" height="16" fill="rgb(0,0,0)"/>
<rect class="gray" x="652" y="88" width="8" height="16" fill="rgb(0,0,0)"/>
<rect class="gray" x="652" y="56" width="8" height="16" fill="rgb(0,0,0)"/>
<rect class="gray" x="644" y="120" width="8" height="16" fill="rgb(0,0,0)"/>
<rect class="gray" x="644" y="88" width="8" height="16" fill="rgb(0,0,0)"/>
<rect class="gray" x="644" y="56" width="8" height="16" fill="rgb(0,0,0)"/>
<rect class="gray" x="636" y="120" width="8" height="16" fill="rgb(0,0,0)"/>
<rect class="gray" x="636" y="88" width="8" height="16" fill="rgb(0,0,0)"/>
<rect class="gray" x="636" y="56" width="8" height="16" fill="rgb(0,0,0)"/>
<rect class="gray" x="628" y="120" width="8" height="16" fill="rgb(0,0,0)"/>
<rect class="gray" x="628" y="104" width="8" height="16" fill="rgb(0,0,0)"/>
<rect class="gray" x="628" y="88" width="8" height="16" fill="rgb(0,0,0)"/>
<rect class="gray" x="628" y="72" width="8" height="16" fill="rgb(0,0,0)"/>
<rect class="gray" x="628" y="56" width="8" height="16" fill="rgb(0,0,0)"/>
<rect class="gray" x="620" y="120" width="8" height="16" fill="rgb(0,0,0)"/>
<rect class="gray" x="620" y="104" width="8" height="16" fill="rgb(0,0,0)"/>
<rect class="gray" x="620" y="88" width="8" height="16" fill="rgb(0,0,0)"/>
<rect class="gray" x="620" y="72" width="8" height="16" fill="rgb(0,0,0)"/>
<rect class="gray" x="620" y="56" width="8" height="16" fill="rgb(0,0,0)"/>
<rect class="gray" x="604" y="120" width="8" height="16" fill="rgb(0,0,0)"/>
<rect class="gray" x="604" y="104" width="8" height="16" fill="rgb(0,0,0)"/>
<rect class="gray" x="604" y="88" width="8" height="16" fill="rgb(0,0,0)"/>
<rect class="gray" x="604" y="56" width="8" height="16" fill="rgb(0,0,0)"/>
<rect class="gray" x="596" y="120" width="8" height="16" fill="rgb(0,0,0)"/>
<rect class="gray" x="596" y="104" width="8" height="16" fill="rgb(0,0,0)"/>
<rect class="gray" x="596" y="88" width="8" height="16" fill="rgb(0,0,0)"/>
<rect class="gray" x="596" y="56" width="8" height="16" fill="rgb(0,0,0)"/>
<rect class="gray" x="588" y="120" width="8" height="16" fill="rgb(0,0,0)"/>
<rect class="gray" x="588" y="88" width="8" height="16" fill="rgb(0,0,0)"/>
<rect class="gray" x="588" y="56" width="8" height="16" fill="rgb(0,0,0)"/>
<rect class="gray" x="580" y="120" width="8" height="16" fill="rgb(0,0,0)"/>
<rect class="gray" x="580" y="88" width="8" height="16" fill="rgb(0,0,0)"/>
<rect class="gray" x="580" y="56" width="8" height="16" fill="rgb(0,0,0)"/>
<rect class="gray" x="572" y="120" width="8" height="16" fill="rgb(0,0,0)"/>
<rect class="gray" x="572" y="88" width="8" height="16" fill="rgb(0,0,0)"/>
<rect class="gray" x="572" y="56" width="8" height="16" fill="rgb(0,0,0)"/>
<rect class="gray" x="564" y="120" width="8" height="16" fill="rgb(0,0,0)"/>
<rect class="gray" x="564" y="88" width="8" height="16" fill="rgb(0,0,0)"/>
<rect class="gray" x="564" y="72" width="8" height="16" fill="rgb(0,0,0)"/>
<rect class="gray" x="564" y="56" width="8" height="16" fill="rgb(0,0,0)"/>
<rect class="gray" x="556" y="120" width="8" height="16" fill="rgb(0,0,0)"/>
<rect class="gray" x="556" y="88" width="8" height="16" fill="rgb(0,0,0)"/>
<rect class="gray" x="556" y="72" width="8" height="16" fill="rgb(0,0,0)"/>
<rect class="gray" x="556" y="56" width="8" height="16" fill="rgb(0,0,0)"/>
<rect class="gray" x="540" y="104" width="8" height="16" fill="rgb(0,0,0)"/>
<rect class="gray" x="540" y="88" width="8" height="16" fill="rgb(0,0,0)"/>
<rect class="gray" x="540" y="72" width="8" height="16" fill="rgb(0,0,0)"/>
<rect class="gray" x="540" y="56" width="8" height="16" fill="rgb(0,0,0)"/>
<rect class="gray" x="532" y="120" width="8" height="16" fill="rgb(0,0,0)"/>
<rect class="gray" x="532" y="104" width="8" height="16" fill="rgb(0,0,0)"/>
<rect class="gray" x="532" y="88" width="8" height="16" fill="rgb(0,0,0)"/>
<rect class="gray" x="532" y="72" width="8" height="16" fill="rgb(0,0,0)"/>
<rect class="gray" x="532" y="56" width="8" height="16" fill="rgb(0,0,0)"/>
<rect class="gray" x="524" y="120" width="8" height="16" fill="rgb(0,0,0)"/>
<rect class="gray" x="516" y="120" width="8" height="16" fill="rgb(0,0,0)"/>
<rect class="gray" x="508" y="120" width="8" height="16" fill="rgb(0,0,0)"/>
<rect class="gray" x="500" y="120" width="8" height="16" fill="rgb(0,0,0)"/>
<rect class="gray" x="492" y="120" width="8" height="16" fill="rgb(0,0,0)"/>
<rect class="gray" x="492" y="104" width="8" height="16" fill="rgb(0,0,0)"/>
<rect class="gray" x="492" y="88" width="8" height="16" fill="rgb(0,0,0)"/>
<rect class="gray" x="492" y="72" width="8" height="16" fill="rgb(0,0,0)"/>
<rect class="gray" x="492" y="56" width="8" height="16" fill="rgb(0,0,0)"/>
<rect class="gray" x="484" y="104" width="8" height="16" fill="rgb(0,0,0)"/>
<rect class="gray" x="484" y="88" width="8" height="16" fill="rgb(0,0,0)"/>
<rect class="gray" x="484" y="72" width="8" height="16" fill="rgb(0,0,0)"/>
<rect class="gray" x="484" y="56" width="8" height="16" fill="rgb(0,0,0)"/>
<rect class="gray" x="468" y="104" width="8" height="16" fill="rgb(0,0,0)"/>
<rect class="gray" x="468" y="88" width="8" height="16" fill="rgb(0,0,0)"/>
<rect class="gray" x="468" y="72" width="8" height="16" fill="rgb(0,0,0)"/>
<rect class="gray" x="460" y="120" width="8" height="16" fill="rgb(0,0,0)"/>
<rect class="gray" x="460" y="104" width="8" height="16" fill="rgb(0,0,0)"/>
<rect class="gray" x="460" y="88" width="8" height="16" fill="rgb(0,0,0)"/>
<rect class="gray" x="460" y="72" width="8" height="16" fill="rgb(0,0,0)"/>
<rect class="gray" x="460" y="56" width="8" height="16" fill="rgb(0,0,0)"/>
<rect class="gray" x="452" y="120" width="8" height="16" fill="rgb(0,0,0)"/>
<rect class="gray" x="452" y="56" width="8" height="16" fill="rgb(0,0,0)"/>
<rect class="gray" x="444" y="120" width="8" height="16" fill="rgb(0,0,0)"/>
<rect class="gray" x="444" y="56" width="8" height="16" fill="rgb(0,0,0)"/>
<rect class="gray" x="436" y="120" width="8" height="16" fill="rgb(0,0,0)"/>
<rect class="gray" x="436" y="56" width="8" height="16" fill="rgb(0,0,0)"/>
<rect class="gray" x="428" y="120" width="8" height="16" fill="rgb(0,0,0)"/>
<rect class="gray" x="428" y="56" width="8" height="16" fill="rgb(0,0,0)"/>
<rect class="gray" x="420" y="120" width="8" height="16" fill="rgb(0,0,0)"/>
<rect class="gray" x="420" y="104" width="8" height="16" fill="rgb(0,0,0)"/>
<rect class="gray" x="420" y="88" width="8" height="16" fill="rgb(0,0,0)"/>
<rect class="gray" x="420" y="72" width="8" height="16" fill="rgb(0,0,0)"/>
<rect class="gray" x="420" y="56" width="8" height="16" fill="rgb(0,0,0)"/>
<rect class="gray" x="412" y="104" width="8" height="16" fill="rgb(0,0,0)"/>
<rect class="gray" x="412" y="88" width="8" height="16" fill="rgb(0,0,0)"/>
<rect class="gray" x="412" y="72" width="8" height="16" fill="rgb(0,0,0)"/>
<rect class="gray" x="396" y="120" width="8" height="16" fill="rgb(0,0,0)"/>
<rect class="gray" x="396" y="104" width="8" height="16" fill="rgb(0,0,0)"/>
<rect class="gray" x="396" y="88" width="8" height="16" fill="rgb(0,0,0)"/>
<rect class="gray" x="396" y="72" width="8" height="16" fill="rgb(0,0,0)"/>
<rect class="gray" x="396" y="56" width="8" height="16" fill="rgb(0,0,0)"/>
<rect class="gray" x="388" y="120" width="8" height="16" fill="rgb(0,0,0)"/>
<rect class="gray" x="388" y="104" width="8" height="16" fill="rgb(0,0,0)"/>
<rect class="gray" x="388" y="88" width="8" height="16" fill="rgb(0,0,0)"/>
<rect class="gray" x="388" y="72" width="8" height="16" fill="rgb(0,0,0)"/>
<rect class="gray" x="388" y="56" width="8" height="16" fill="rgb(0,0,0)"/>
<rect class="gray" x="380" y="88" width="8" height="16" fill="rgb(0,0,0)"/>
<rect class="gray" x="372" y="88" width="8" height="16" fill="rgb(0,0,0)"/>
<rect class="gray" x="364" y="88" width="8" height="16" fill="rgb(0,0,0)"/>
<rect class="gray" x="356" y="120" width="8" height="16" fill="rgb(0,0,0)"/>
<rect class="gray" x="356" y="104" width="8" height="16" fill="rgb(0,0,0)"/>
<rect class="gray" x="356" y="88" width="8" height="16" fill="rgb(0,0,0)"/>
<rect class="gray" x="356" y="72" width="8" height="16" fill="rgb(0,0,0)"/>
<rect class="gray" x="356" y="56" width="8" height="16" fill="rgb(0,0,0)"/>
<rect class="gray" x="348" y="120" width="8" height="16" fill="rgb(0,0,0)"/>
<rect class="gray" x="348" y="104" width="8" height="16" fill="rgb(0,0,0)"/>
<rect class="gray" x="348" y="88" width="8" height="16" fill="rgb(0,0,0)"/>
<rect class="gray" x="348" y="72" width="8" height="16" fill="rgb(0,0,0)"/>
<rect class="gray" x="348" y="56" width="8" height="16" fill="rgb(0,0,0)"/>
<rect class="gray" x="332" y="120" width="8" height="16" fill="rgb(0,0,0)"/>
<rect class="gray" x="332" y="104" width="8" height="16" fill="rgb(0,0,0)"/>
<rect class="gray" x="332" y="88" width="8" height="16" fill="rgb(0,0,0)"/>
<rect class="gray" x="332" y="72" width="8" height="16" fill="rgb(0,0,0)"/>
<rect class="gray" x="332" y="56" width="8" height="16" fill="rgb(0,0,0)"/>
<rect class="gray" x="324" y="120" width="8" height="16" fill="rgb(0,0,0)"/>
<rect class="gray" x="324" y="104" width="8" height="16" fill="rgb(0,0,0)"/>
<rect class="gray" x="324" y="88" width="8" height="16" fill="rgb(0,0,0)"/>
<rect class="gray" x="324" y="72" width="8" height="16" fill="rgb(0,0,0)"/>
<rect class="gray" x="324" y="56" width="8" height="16" fill="rgb(0,0,0)"/>
<rect class="gray" x="316" y="120" width="8" height="16" fill="rgb(0,0,0)"/>
<rect class="gray" x="308" y="120" width="8" height="16" fill="rgb(0,0,0)"/>
<rect class="gray" x="308" y="104" width="8" height="16" fill="rgb(0,0,0)"/>
<rect class="gray" x="300" y="104" width="8" height="16" fill="rgb(0,0,0)"/>
<rect class="gray" x="300" y="88" width="8" height="16" fill="rgb(0,0,0)"/>
<rect class="gray" x="292" y="88" width="8" height="16" fill="rgb(0,0,0)"/>
<rect class="gray" x="292" y="72" width="8" height="16" fill="rgb(0,0,0)"/>
<rect class="gray" x="284" y="72" width="8" height="16" fill="rgb(0,0,0)"/>
<rect class="gray" x="284" y="56" width="8" height="16" fill="rgb(0,0,0)"/>
<rect class="gray" x="276" y="120" width="8" height="16" fill="rgb(0,0,0)"/>
<rect class="gray" x="276" y="104" width="8" height="16" fill="rgb(0,0,0)"/>
<rect class="gray" x="276" y="88" width="8" height="16" fill="rgb(0,0,0)"/>
<rect class="gray" x="276" y="72" width="8" height="16" fill="rgb(0,0,0)"/>
<rect class="gray" x="276" y="56" width="8" height="16" fill="rgb(0,0,0)"/>
<rect class="gray" x="268" y="120" width="8" height="16" fill="rgb(0,0,0)"/>
<rect class="gray" x="268" y="104" width="8" height="16" fill="rgb(0,0,0)"/>
<rect class="gray" x="268" y="88" width="8" height="16" fill="rgb(0,0,0)"/>
<rect class="gray" x="268" y="72" width="8" height="16" fill="rgb(0,0,0)"/>
<rect class="gray" x="268" y="56" width="8" height="16" fill="rgb(0,0,0)"/>
<rect class="gray" x="252" y="120" width="8" height="16" fill="rgb(0,0,0)"/>
<rect class="gray" x="252" y="56" width="8" height="16" fill="rgb(0,0,0)"/>
<rect class="gray" x="244" y="120" width="8" height="16" fill="rgb(0,0,0)"/>
<rect class="gray" x="244" y="56" width="8" height="16" fill="rgb(0,0,0)"/>
<rect class="gray" x="236" y="120" width="8" height="16" fill="rgb(0,0,0)"/>
<rect class="gray" x="236" y="88" width="8" height="16" fill="rgb(0,0,0)"/>
<rect class="gray" x="236" y="56" width="8" height="16" fill="rgb(0,0,0)"/>
<rect class="gray" x="228" y="120" width="8" height="16" fill="rgb(0,0,0)"/>
<rect class="gray" x="228" y="88" width="8" height="16" fill="rgb(0,0,0)"/>
<rect class="gray" x="228" y="56" width="8" height="16" fill="rgb(0,0,0)"/>
<rect class="gray" x="220" y="120" width="8" height="16" fill="rgb(0,0,0)"/>
<rect class="gray" x="220" y="88" width="8" height="16" fill="rgb(0,0,0)"/>
<rect class="gray" x="220" y="56" width="8" height="16" fill="rgb(0,0,0)"/>
<rect class="gray" x="212" y="120" width="8" height="16" fill="rgb(0,0,0)"/>
<rect class="gray" x="212" y="104" width="8" height="16" fill="rgb(0,0,0)"/>
<rect class="gray" x="212" y="88" width="8" height="16" fill="rgb(0,0,0)"/>
<rect class="gray" x="212" y="72" width="8" height="16" fill="rgb(0,0,0)"/>
<rect class="gray" x="212" y="56" width="8" height="16" fill="rgb(0,0,0)"/>
<rect class="gray" x="204" y="120" width="8" height="16" fill="rgb(0,0,0)"/>
<rect class="gray" x="204" y="104" width="8" height="16" fill="rgb(0,0,0)"/>
<rect class="gray" x="204" y="88" width="8" height="16" fill="rgb(0,0,0)"/>
<rect class="gray" x="204" y="72" width="8" height="16" fill="rgb(0,0,0)"/>
<rect class="gray" x="204" y="56" width="8" height="16" fill="rgb(0,0,0)"/>
<rect class="gray" x="188" y="120" width="8" height="16" fill="rgb(0,0,0)"/>
<rect class="gray" x="188" y="56" width="8" height="16" fill="rgb(0,0,0)"/>
<rect class="gray" x="180" y="120" width="8" height="16" fill="rgb(0,0,0)"/>
<rect class="gray" x="180" y="56" width="8" height="16" fill="rgb(0,0,0)"/>
<rect class="gray" x="172" y="120" width="8" height="16" fill="rgb(0,0,0)"/>
<rect class="gray" x="172" y="88" width="8" height="16" fill="rgb(0,0,0)"/>
<rect class="gray" x="172" y="56" width="8" height="16" fill="rgb(0,0,0)"/>
<rect class="gray" x="164" y="120" width="8" height="16" fill="rgb(0,0,0)"/>
<rect class="gray" x="164" y="88" width="8" height="16" fill="rgb(0,0,0)"/>
<rect class="gray" x="164" y="56" width="8" height="16" fill="rgb(0,0,0)"/>
<rect class="gray" x="156" y="120" width="8" height="16" fill="rgb(0,0,0)"/>
<rect class="gray" x="156" y="88" width="8" height="16" fill="rgb(0,0,0)"/>
<rect class="gray" x="156" y="56" width="8" height="16" fill="rgb(0,0,0)"/>
<rect class="gray" x="148" y="120" width="8" height="16" fill="rgb(0,0,0)"/>
<rect class="gray" x="148" y="104" width="8" height="16" fill="rgb(0,0,0)"/>
<rect class="gray" x="148" y="88" width="8" height="16" fill="rgb(0,0,0)"/>
<rect class="gray" x="148" y="72" width="8" height="16" fill="rgb(0,0,0)"/>
<rect class="gray" x="148" y="56" width="8" height="16" fill="rgb(0,0,0)"/>
<rect class="gray" x="140" y="120" width="8" height="16" fill="rgb(0,0,0)"/>
<rect class="gray" x="140" y="104" width="8" height="16" fill="rgb(0,0,0)"/>
<rect class="gray" x="140" y="88" width="8" height="16" fill="rgb(0,0,0)"/>
<rect class="gray" x="140" y="72" width="8" height="16" fill="rgb(0,0,0)"/>
<rect class="gray" x="140" y="56" width="8" height="16" fill="rgb(0,0,0)"/>
<rect class="gray" x="124" y="120" width="8" height="16" fill="rgb(0,0,0)"/>
<rect class="gray" x="124" y="104" width="8" height="16" fill="rgb(0,0,0)"/>
<rect class="gray" x="124" y="72" width="8" height="16" fill="rgb(0,0,0)"/>
<rect class="gray" x="116" y="120" width="8" height="16" fill="rgb(0,0,0)"/>
<rect class="gray" x="116" y="104" width="8" height="16" fill="rgb(0,0,0)"/>
<rect class="gray" x="116" y="88" width="8" height="16" fill="rgb(0,0,0)"/>
<rect class="gray" x="116" y="72" width="8" height="16" fill="rgb(0,0,0)"/>
<rect class="gray" x="116" y="56" width="8" height="16" fill="rgb(0,0,0)"/>
<rect class="gray" x="108" y="88" width="8" height="16" fill="rgb(0,0,0)"/>
<rect class="gray" x="108" y="56" width="8" height="16" fill="rgb(0,0,0)"/>
<rect class="gray" x="100" y="88" width="8" height="16" fill="rgb(0,0,0)"/>
<rect class="gray" x="100" y="56" width="8" height="16" fill="rgb(0,0,0)"/>
<rect class="gray" x="92" y="88" width="8" height="16" fill="rgb(0,0,0)"/>
<rect class="gray" x="92" y="56" width="8" height="16" fill="rgb(0,0,0)"/>
<rect class="gray" x="84" y="120" width="8" height="16" fill="rgb(0,0,0)"/>
<rect class="gray" x="84" y="104" width="8" height="16" fill="rgb(0,0,0)"/>
<rect class="gray" x="84" y="88" width="8" height="16" fill="rgb(0,0,0)"/>
<rect class="gray" x="84" y="72" width="8" height="16" fill="rgb(0,0,0)"/>
<rect class="gray" x="84" y="56" width="8" height="16" fill="rgb(0,0,0)"/>
<rect class="gray" x="76" y="120" width="8" height="16" fill="rgb(0,0,0)"/>
<rect class="gray" x="76" y="104" width="8" height="16" fill="rgb(0,0,0)"/>
<rect class="gray" x="76" y="88" width="8" height="16" fill="rgb(0,0,0)"/>
<rect class="gray" x="76" y="72" width="8" height="16" fill="rgb(0,0,0)"/>
<rect class="gray" x="76" y="56" width="8" height="16" fill="rgb(0,0,0)"/>
<rect class="gray" x="60" y="104" width="8" height="16" fill="rgb(0,0,0)"/>
<rect class="gray" x="60" y="88" width="8" height="16" fill="rgb(0,0,0)"/>
<rect class="gray" x="52" y="120" width="8" height="16" fill="rgb(0,0,0)"/>
<rect class="gray" x="52" y="104" width="8" height="16" fill="rgb(0,0,0)"/>
<rect class="gray" x="52" y="88" width="8" height="16" fill="rgb(0,0,0)"/>
<rect class="gray" x="52" y="56" width="8" height="16" fill="rgb(0,0,0)"/>
<rect class="gray" x="44" y="120" width="8" height="16" fill="rgb(0,0,0)"/>
<rect class="gray" x="44" y="88" width="8" height="16" fill="rgb(0,0,0)"/>
<rect class="gray" x="44" y="56" width="8" height="16" fill="rgb(0,0,0)"/>
<rect class="gray" x="36" y="120" width="8" height="16" fill="rgb(0,0,0)"/>
<rect class="gray" x="36" y="56" width="8" height="16" fill="rgb(0,0,0)"/>
<rect class="gray" x="28" y="120" width="8" height="16" fill="rgb(0,0,0)"/>
<rect class="gray" x="28" y="56" width="8" height="16" fill="rgb(0,0,0)"/>
<rect class="gray" x="20" y="120" width="8" height="16" fill="rgb(0,0,0)"/>
<rect class="gray" x="20" y="56" width="8" height="16" fill="rgb(0,0,0)"/>
<rect class="gray" x="12" y="120" width="8" height="16" fill="rgb(0,0,0)"/>
<rect class="gray" x="12" y="104" width="8" height="16" fill="rgb(0,0,0)"/>
<rect class="gray" x="12" y="88" width="8" height="16" fill="rgb(0,0,0)"/>
<rect class="gray" x="12" y="72" width="8" height="16" fill="rgb(0,0,0)"/>
<rect class="gray" x="12" y="56" width="8" height="16" fill="rgb(0,0,0)"/>
<rect class="gray" x="4" y="104" width="8" height="16" fill="rgb(0,0,0)"/>
<rect class="gray" x="4" y="88" width="8" height="16" fill="rgb(0,0,0)"/>
<rect class="gray" x="4" y="72" width="8" height="16" fill="rgb(0,0,0)"/>
<g class="text">
<text x="456" y="36">:</text>
<text x="528" y="36">WELCOME</text>
<text x="604" y="36">TO</text>
<text x="656" y="36">:</text>
<text x="64" y="68">╗</text>
<text x="128" y="68">╗</text>
<text x="200" y="68">╗</text>
<text x="264" y="68">╗</text>
<text x="296" y="68">╗</text>
<text x="344" y="68">╗</text>
<text x="368" y="68">╗</text>
<text x="408" y="68">╗</text>
<text x="472" y="68">╗</text>
<text x="504" y="68">╗</text>
<text x="552" y="68">╗</text>
<text x="616" y="68">╗</text>
<text x="680" y="68">╗</text>
<text x="784" y="68">╗</text>
<text x="848" y="68">╗</text>
<text x="880" y="68">╗</text>
<text x="936" y="68">╗</text>
<text x="1000" y="68">╗</text>
<text x="1056" y="68">╗</text>
<text x="1152" y="68">╗</text>
<text x="1184" y="68">╗</text>
<text x="1208" y="68">╗</text>
<text x="1256" y="68">╗</text>
<text x="24" y="84">╔</text>
<text x="64" y="84">╝</text>
<text x="104" y="84">╔══</text>
<text x="136" y="84">╗</text>
<text x="160" y="84">╔</text>
<text x="200" y="84">╝</text>
<text x="224" y="84">╔</text>
<text x="264" y="84">╝</text>
<text x="304" y="84">╗</text>
<text x="368" y="84">║</text>
<text x="432" y="84">╔</text>
<text x="480" y="84">╗</text>
<text x="576" y="84">╔</text>
<text x="616" y="84">╝</text>
<text x="640" y="84">╔</text>
<text x="680" y="84">╝</text>
<text x="728" y="84">╚══</text>
<text x="772" y="84">╔══╝</text>
<text x="808" y="84">╔</text>
<text x="856" y="84">╗</text>
<text x="960" y="84">╔</text>
<text x="1000" y="84">╝</text>
<text x="1032" y="84">╔══</text>
<text x="1064" y="84">╗</text>
<text x="1128" y="84">╔══</text>
<text x="1160" y="84">╗</text>
<text x="1192" y="84">╚</text>
<text x="1216" y="84">╗</text>
<text x="1252" y="84">╔╝</text>
<text x="72" y="100">╗</text>
<text x="132" y="100">╔╝</text>
<text x="184" y="100">╗</text>
<text x="248" y="100">╗</text>
<text x="288" y="100">╔</text>
<text x="312" y="100">╗</text>
<text x="616" y="100">╗</text>
<text x="664" y="100">╗</text>
<text x="904" y="100">╗</text>
<text x="984" y="100">╗</text>
<text x="1060" y="100">╔╝</text>
<text x="1200" y="100">╚</text>
<text x="1244" y="100">╔╝</text>
<text x="72" y="116">║</text>
<text x="104" y="116">╔══</text>
<text x="136" y="116">╗</text>
<text x="172" y="116">╔══╝</text>
<text x="236" y="116">╔══╝</text>
<text x="296" y="116">╚</text>
<text x="320" y="116">╗</text>
<text x="376" y="116">╔══</text>
<text x="560" y="116">╚</text>
<text x="652" y="116">╔══╝</text>
<text x="912" y="116">╗</text>
<text x="972" y="116">╔══╝</text>
<text x="1032" y="116">╔══</text>
<text x="1064" y="116">╗</text>
<text x="1208" y="116">╚</text>
<text x="1236" y="116">╔╝</text>
<text x="8" y="132">╚</text>
<text x="68" y="132">╔╝</text>
<text x="96" y="132">║</text>
<text x="136" y="132">║</text>
<text x="200" y="132">╗</text>
<text x="264" y="132">╗</text>
<text x="304" y="132">╚</text>
<text x="368" y="132">║</text>
<text x="416" y="132">╚</text>
<text x="480" y="132">╔╝╚</text>
<text x="548" y="132">╔╝</text>
<text x="680" y="132">╗</text>
<text x="792" y="132">╚</text>
<text x="856" y="132">╔╝╚</text>
<text x="896" y="132">╔</text>
<text x="932" y="132">╔╝</text>
<text x="1000" y="132">╗</text>
<text x="1024" y="132">║</text>
<text x="1064" y="132">║</text>
<text x="1156" y="132">╔╝</text>
<text x="1232" y="132">║</text>
<text x="16" y="148">╚</text>
<text x="80" y="148">╝ ╚═╝</text>
<text x="132" y="148">╚═╝╚</text>
<text x="204" y="148">╝╚</text>
<text x="276" y="148">╝╚═╝</text>
<text x="312" y="148">╚</text>
<text x="356" y="148">╝╚═╝</text>
<text x="408" y="148">╚═╝ ╚</text>
<text x="472" y="148">╝</text>
<text x="496" y="148">╚</text>
<text x="552" y="148">╝ ╚</text>
<text x="620" y="148">╝╚</text>
<text x="680" y="148">╝</text>
<text x="752" y="148">╚═╝</text>
<text x="800" y="148">╚</text>
<text x="848" y="148">╝</text>
<text x="908" y="148">╚══╝╚══╝ ╚</text>
<text x="1012" y="148">╝╚═╝</text>
<text x="1056" y="148">╚═╝</text>
<text x="1104" y="148">╚</text>
<text x="1168" y="148">╝ ╚═╝</text>
<text x="1224" y="148">╚═╝</text>
<text x="500" y="196">....</text>
<text x="492" y="212">,;;'''';;,</text>
<text x="716" y="212">,;;;;,</text>
<text x="392" y="228">,</text>
<text x="472" y="228">;;'</text>
<text x="548" y="228">`;;,</text>
<text x="708" y="228">.,;;;'</text>
<text x="760" y="228">;</text>
<text x="372" y="244">,;;;</text>
<text x="452" y="244">;;</text>
<text x="580" y="244">`;;,';;;,.</text>
<text x="680" y="244">,%;;'</text>
<text x="744" y="244">'</text>
<text x="380" y="260">,;;,;;</text>
<text x="468" y="260">;;</text>
<text x="600" y="260">,;`;;;, `;::.</text>
<text x="684" y="260">%%;'</text>
<text x="352" y="276">;;;,;;;</text>
<text x="444" y="276">`'</text>
<text x="588" y="276">,;;; ;;,;;, `::,%%;'</text>
<text x="356" y="292">;;;,;;;,</text>
<text x="536" y="292">.,%%%%%'% ;;;;,;;</text>
<text x="644" y="292">%;;;</text>
<text x="276" y="308">,%,.</text>
<text x="376" y="308">`;;;,;;;,</text>
<text x="536" y="308">.,%%%%%%%%%'%; ;;;;;,;;</text>
<text x="660" y="308">%;;;</text>
<text x="408" y="324">;,`%%%%%%%%%%`;;,;;'%%%%%%%%%%%%%'%%'</text>
<text x="628" y="324">`;;;;;,;, %;;;</text>
<text x="404" y="340">;;;,`%%%%%%%%%%%,; ..`%%%%%%%%;'%%%'</text>
<text x="632" y="340">`;;;;,;; %%;;</text>
<text x="324" y="356">`;;;;;,`%%%%%,;;</text>
<text x="484" y="356">`&quot;&quot;&quot;'',%%%%%</text>
<text x="632" y="356">`;;;;;; %%;;,</text>
<text x="324" y="372">`;;;;;;;</text>
<text x="372" y="372">;;</text>
<text x="400" y="372">/</text>
<text x="504" y="372">,;%%%%%%%</text>
<text x="648" y="372">`;;;;,`%%;;</text>
<text x="336" y="388">;;;</text>
<text x="380" y="388">%%%%,%</text>
<text x="476" y="388">;;;';%%%%%%,</text>
<text x="640" y="388">`;;;%%;;,</text>
<text x="376" y="404">;;;/%%%,%%%%%</text>
<text x="488" y="404">;;;';;'%%%%%,</text>
<text x="664" y="404">`%%;;</text>
<text x="336" y="420">.;;</text>
<text x="388" y="420">%%,%%%%%</text>
<text x="444" y="420">/;;'</text>
<text x="516" y="420">;;;'%%%%%,</text>
<text x="680" y="420">%%;;,</text>
<text x="332" y="436">;;</text>
<text x="384" y="436">%,%%%%/</text>
<text x="436" y="436">;;;'</text>
<text x="516" y="436">`;;;;'%%%%</text>
<text x="680" y="436">`%;;;</text>
<text x="332" y="452">;;</text>
<text x="356" y="452">/%</text>
<text x="376" y="452">%</text>
<text x="412" y="452">/;;;;'</text>
<text x="520" y="452">`;;;;'%%%</text>
<text x="688" y="452">%;;;,</text>
<text x="340" y="468">`;;/</text>
<text x="368" y="468">,</text>
<text x="396" y="468">;;;'</text>
<text x="524" y="468">`;;;'%%'</text>
<text x="688" y="468">`%;;;</text>
<text x="344" y="484">`;;;;</text>
<text x="512" y="484">`;'%'</text>
<text x="680" y="484">`;;;;</text>
<text x="520" y="500">'</text>
<text x="592" y="500">.,,,.</text>
<text x="696" y="500">`;;;;</text>
<text x="596" y="516">,;;;;;;;;;;,</text>
<text x="704" y="516">`;;;;</text>
<text x="564" y="532">;;;'</text>
<text x="640" y="532">;;;,;;,</text>
<text x="720" y="532">`;;;;</text>
<text x="560" y="548">;;;</text>
<text x="652" y="548">;;;;,;;.</text>
<text x="728" y="548">`;;;;</text>
<text x="560" y="564">`;;</text>
<text x="652" y="564">;;;;;,;;</text>
<text x="724" y="564">;;;;</text>
<text x="588" y="580">`'</text>
<text x="676" y="580">`;;;;,;;</text>
<text x="740" y="580">;;;;</text>
<text x="688" y="596">`;;,;, ;;;;</text>
<text x="708" y="612">;;, ;;;;</text>
<text x="732" y="628">';;;;;</text>
<text x="728" y="644">;;;;;</text>
<text x="732" y="660">.;;;;'</text>
<text x="700" y="676">.;;;;'</text>
<text x="700" y="692">;;;;;'</text>
<text x="700" y="708">,;;;;'</text>
<text x="588" y="740">Flower Art by Susie Oviatt</text>
</g>
</svg>
